# xmcd
#
# Track frame offsets:
#	150
#	18278
#	32758
#	51204
#	66740
#	84025
#	102237
#	119930
#	141487
#	160653
#	177521
#	194674
#	213015
#	230468
#	247246
#
# Disc length: 3526
#
# Revision: 1
# Processed by: cddbd v1.5.2PL0 Copyright (c) Steve Scherf et al.
# Submitted via: kJams Pro (development) 1.0patch50.6
#
DISCID=de0dc40f
DTITLE=Various Artist - CB60395−Feb 2009
DYEAR=2009
DGENRE=Country
TTITLE0=Keith Urban - Sweet Thing
TTITLE1=Kenny Chesney f. Mac McAnally - Down The Road
TTITLE2=Martina McBride - Ride
TTITLE3=George Strait - River of Love
TTITLE4=Jason Aldean - She's Country
TTITLE5=Kellie Pickler - Best Days of your Life
TTITLE6=Toby Keith - That Don't Make Me a Bad Guy
TTITLE7=Little Big Town - Good Lord Willing
TTITLE8=Jessica Andrews - Everything
TTITLE9=Rodney Atkins - Its America
TTITLE10=James Otto - These Are The Good Ole Days
TTITLE11=Taylor Swift - White Horse
TTITLE12=Randy Rogers Band - In My Arms Instead
TTITLE13=Emerson Drive - Belongs to you
TTITLE14=Kevin Costner and Modern West - Long Hot Night
EXTD=
EXTT0=
EXTT1=
EXTT2=
EXTT3=
EXTT4=
EXTT5=
EXTT6=
EXTT7=
EXTT8=
EXTT9=
EXTT10=
EXTT11=
EXTT12=
EXTT13=
EXTT14=
PLAYORDER=
